<?xml version="1.0" encoding="UTF-8"?>
<svg id="Layer_1" xmlns="http://www.w3.org/2000/svg" version="1.1" viewBox="0 0 2176 660">
  <!-- Generator: Adobe Illustrator 29.1.0, SVG Export Plug-In . SVG Version: 2.1.0 Build 142)  -->
  <defs>
    <style>
      .st0 {
        font-family: BebasNeueBold, 'Bebas Neue';
        font-size: 348.7px;
      }

      .st1 {
        fill: #0a0b0b;
      }

      .st2 {
        fill: #f1ede9;
      }

      .st3 {
        fill: #f5820a;
      }
    </style>
  </defs>
  <rect class="st3" x="1977.7" y="39.2" width="17.2" height="74.3" rx="8.4" ry="8.4" transform="translate(37.1 465.8) rotate(-13.5)"/>
  <rect class="st3" x="2029.7" y="75.3" width="76.9" height="17.2" rx="8.5" ry="8.5" transform="translate(913 1801.4) rotate(-58.4)"/>
  <path class="st3" d="M1898.5,240.7c0,.2.2.3.4.2,2.5-2.2,14-12.4,34.5-30.5,6.4-5.7,11.2-9.3,14.5-10.8,23.4-11.1,49.3.7,57.5,24.9.1.4.6.5.9.2,13.8-14.6,35.8-23,54.8-16.8,16.9,5.5,24.6,22.1,24.1,40,0,3.2-.8,7.6-2,13.4-4.1,18.7-6.9,36.2-8.7,52.6-.5,5.1-.7,10.8-.5,17.2,0,2.5.7,4.5,1.8,6.2,9.5,14.8,17,29.5,22.6,44.1,10.5,27.6,12.9,55.9,6.9,84.9-3.2,15.6-8.3,31.3-15.4,47.1-1.6,3.7-4.3,9.8-7.9,18.1-10.5,24.5-23.6,50-39.7,71.3-4.9,6.5-11.9,12.2-21.1,17.1-20,10.8-43.5,17.1-65.6,19.4-6.1.6-11.6.9-16.5.7-5.1,0-15.2.3-22-.3-34.4-3.1-66.1-15.9-91-39.9-6.9-6.6-13.8-15.3-20.8-25.8-13.9-20.9-26.4-45-33.4-70.2-2.5-9.1-3.8-18.2-3.7-27.5v-76.4c0-11.6.4-19.6,1.4-24.2,3.1-15,10.2-28.1,21.2-39.2,4.6-4.6,9.5-9,14.6-13.2.6-.5.9-1.2.9-2v-86.5c-.2-8.6.3-14.9,1.4-19.1,1.8-7,4.6-13.3,8.4-19,1-1.5,5.5-6.8,13.4-15.9,28.9-33.1,44.2-50.6,45.7-52.3,19.2-21.8,53.7-17.6,67.3,7.8,6.5,12.2,6.4,27.5-.7,39.7-1.3,2.3-4.2,5.9-8.5,10.9-22.4,25.6-33.7,38.6-33.9,38.8-.7.7-1,1.6-1,2.6l.3,12.4h-.2,0ZM1823.4,277.7v29.4c0,.2.2.3.4.1l57.3-50.5c.4-.3.6-.8.6-1.3l-.4-20.4c0-3.4,0-6.8-.2-10.2-.1-2.7.5-4.8,1.8-6.3,22.5-25.7,36.2-41.4,41.1-47.1,9.1-10.6,7.8-25.7-2.8-34.4-7.7-6.3-17.7-6.9-26.5-2.6-2.3,1.2-5.8,4.4-10.5,9.8-8.5,9.9-24.2,27.8-47,53.9-5.2,5.9-8.5,10.4-9.9,13.5-2.4,5.2-3.7,10.6-3.7,16.3v49.7h-.2ZM1789.8,504.3c6.1,20,16.5,39.5,27.8,57.1,6.5,10.1,12.7,18.1,18.6,24.2,37.2,38,93.8,44.2,142.9,32,12.8-3.2,24.6-7.8,35.5-13.7,6.6-3.7,12.1-8.5,16.4-14.7,8-11.4,15-23.1,21.2-35.2,5.9-11.6,10.3-20.7,13.1-27.2,7.1-16.8,11.8-26.2,16.3-39.8,4.3-12,7.2-24,8.7-36,3.8-30.5-3.6-58.5-18.8-86.7-3.3-6.1-7-12.7-11.3-19.8-4.1-7-3.9-15.7-3.4-24,1.2-22.1,5.4-43.2,10.4-67.5,2.8-13.4-1.4-29.6-17.9-29.9-37.8-.7-55.4,52-62.5,80.9-2.1,8.5-3.3,13.8-3.6,15.8-1.5,8.9-3,19.5-4.6,31.6,0,.5.1,1,.5,1.3,7.2,5.3,15.3,11.4,24.2,18.3,6.5,5,11.2,9.5,13.8,13.2,6,8.4,8.4,18.3,7.1,29.6-3.1,16.6-12.5,27.7-28.2,33.3-.3,0-.3.4,0,.6,5,3.6,10.4,7.5,14.2,12.3,3.8,4.9,6.5,10.4,8,16.6,4.3,21.6-7.5,41.9-28.4,48.4-11.7,3.6-26,1.4-36-6.3-28-21.4-42.1-32.1-42.3-32.2-.2-.2-.5-.2-.8,0-.9,1-3.1,3.1-6.7,6.4-3.2,3-6.8,3.4-10.8,1.2-3.1-2.8-4.3-5.8-3.5-9,.5-2.1,2.1-4.4,4.8-6.9,2.4-2.3,5.8-5.6,10-9.9.2-.2.4-.3.6-.5,3.8-2.3,7.4-2.2,10.7.3,18.7,14.3,34.5,26.4,47.6,36.4,8.4,6.4,17.5,6.8,27.2,1.3,6.8-4.5,10.5-10.5,11.2-17.9.5-5.9-.9-11.3-4.3-16.2-1.6-2.4-5.9-6.1-12.9-11.2-.1,0-18.9-14.5-56.4-43.1-3.3-2.5-5.6-3.9-6.9-4.3-7.5-2-11.5.6-17.8,6.5-2.7,2.5-13.8,12.6-33.4,30.2-3.8,3.4-7,5.5-11.7,3.3-3.1-1.5-4.7-4.2-4.8-8.2,0-2.4,1-4.3,2.6-5.7,22.1-19.9,33.5-30.3,34.4-31.1,5.7-5.3,10.1-8.6,13.2-10,10-4.4,22.6-3.7,31.6,3.2,16,12.2,24.9,19,26.6,20.3,5.5,4.3,9,6.8,10.4,7.5,7.7,3.8,16.8,3.5,24-1.3,10.9-7.3,13.9-21.2,7.4-32.3-1.6-2.7-5.3-6.3-11.1-10.7-24.9-19.1-46.8-35.7-65.6-49.8-.5-.4-1-.6-1.6-.7-2.1-.5-4.3-.5-6.5-.1-1.5.3-3.6,1.6-6.2,3.9-14.3,12.5-28.7,25.2-43.1,38.1-3.8,3.5-8.8,9.2-14.7,6.6-3.2-1.4-4.9-3.9-5.3-7.2-.3-2.8.5-5,2.3-6.5,18.7-16.5,36.8-32.5,54.5-48,5.4-4.7,12.7-11.7,19.2-17.4,27.6-24.1,46.5-40.6,56.6-49.8,5.8-5.3,8.2-12.2,7.2-20.7-1.1-7.2-4.6-12.7-10.3-16.5-7.6-5-15.8-5.4-24.5-1.2-2.3,1.1-4.6,3.1-6.3,4.6-19.6,17.4-57.7,50.9-114.1,100.6-5.6,4.9-14.1,12.5-25.4,22.6-6.8,6.1-11.3,10.8-13.6,14.2-6.9,10.3-10.2,21.2-10.2,32.8v85.7c0,8.6,1.6,18.1,4.8,28.3h-.1ZM1974.2,284.4c0-.1-.1-.2-.2-.1l-39.3,34.6c-.2.2-.2.6,0,.8.4.3,1.3.4,2,.9,9.4,6.7,17.4,12.8,24.1,18.3.4.4,1.1.1,1.2-.5.4-2.9,1.1-5.2,1.5-7.5,2.4-15.3,6-30.8,10.6-46.5h0Z"/>
  <rect class="st3" x="2070.7" y="145.4" width="78.4" height="17.2" rx="8.4" ry="8.4" transform="translate(21.8 493.2) rotate(-13.4)"/>
  <text class="st0" transform="translate(68.6 464.3)"><tspan class="st2" x="0" y="0">EASY</tspan><tspan class="st3" x="538.7" y="0">VECTOR</tspan><tspan class="st2" x="1344.1" y="0">.AI</tspan></text>
</svg>